name ./resultDataOpenSim/trcMotMarkerGrf/sub06/grf-01-02.mot
datacolumns 19
datarows 30
range 1.00800000 1.12400000
endheader

                time	     ground_force_vx	     ground_force_vy	     ground_force_vz	     ground_force_px	     ground_force_py	     ground_force_pz	   l_ground_force_vx	   l_ground_force_vy	   l_ground_force_vz	   l_ground_force_px	   l_ground_force_py	   l_ground_force_pz	     ground_torque_x	     ground_torque_y	     ground_torque_z	   l_ground_torque_x	   l_ground_torque_y	   l_ground_torque_z	
          1.00800000	          0.00000000	          0.00000000	          0.00000000	          0.00000000	          0.00000000	          0.00000000	        107.00623463	        766.90857547	         54.65991103	          0.00604512	          0.00000000	         -0.07141008	          0.00000000	          0.00000000	          0.00000000	          0.00000000	         -2.35675198	          0.00000000	
          1.01200000	          0.00000000	          0.00000000	          0.00000000	          0.00000000	          0.00000000	          0.00000000	        113.95637156	        781.24127978	         55.22867442	          0.00640256	          0.00000000	         -0.07127528	          0.00000000	          0.00000000	          0.00000000	          0.00000000	         -2.48453986	          0.00000000	
          1.01600000	          0.00000000	          0.00000000	          0.00000000	          0.00000000	          0.00000000	          0.00000000	        120.97236206	        794.08938896	         55.54920256	          0.00685889	          0.00000000	         -0.07106235	          0.00000000	          0.00000000	          0.00000000	          0.00000000	         -2.62549726	          0.00000000	
          1.02000000	          0.00000000	          0.00000000	          0.00000000	          0.00000000	          0.00000000	          0.00000000	        128.01419110	        805.38492947	         55.65977029	          0.00738153	          0.00000000	         -0.07080211	          0.00000000	          0.00000000	          0.00000000	          0.00000000	         -2.77404981	          0.00000000	
          1.02400000	          0.00000000	          0.00000000	          0.00000000	          0.00000000	          0.00000000	          0.00000000	        135.05729354	        814.99895867	         55.58457085	          0.00795613	          0.00000000	         -0.07051553	          0.00000000	          0.00000000	          0.00000000	          0.00000000	         -2.92348102	          0.00000000	
          1.02800000	          0.00000000	          0.00000000	          0.00000000	          0.00000000	          0.00000000	          0.00000000	        142.05946268	        822.69049397	         55.34437815	          0.00858065	          0.00000000	         -0.07021624	          0.00000000	          0.00000000	          0.00000000	          0.00000000	         -3.06635178	          0.00000000	
          1.03200000	          0.00000000	          0.00000000	          0.00000000	          0.00000000	          0.00000000	          0.00000000	        148.94834770	        828.15344526	         54.95618178	          0.00925399	          0.00000000	         -0.06991760	          0.00000000	          0.00000000	          0.00000000	          0.00000000	         -3.19521900	          0.00000000	
          1.03600000	          0.00000000	          0.00000000	          0.00000000	          0.00000000	          0.00000000	          0.00000000	        155.63990513	        831.13614873	         54.43358157	          0.00997448	          0.00000000	         -0.06962996	          0.00000000	          0.00000000	          0.00000000	          0.00000000	         -3.30350509	          0.00000000	
          1.04000000	          0.00000000	          0.00000000	          0.00000000	          0.00000000	          0.00000000	          0.00000000	        162.06515576	        831.51691625	         53.79741364	          0.01074348	          0.00000000	         -0.06935680	          0.00000000	          0.00000000	          0.00000000	          0.00000000	         -3.38631274	          0.00000000	
          1.04400000	          0.00000000	          0.00000000	          0.00000000	          0.00000000	          0.00000000	          0.00000000	        168.17980934	        829.29657365	         53.08059209	          0.01156338	          0.00000000	         -0.06909820	          0.00000000	          0.00000000	          0.00000000	          0.00000000	         -3.44102621	          0.00000000	
          1.04800000	          0.00000000	          0.00000000	          0.00000000	          0.00000000	          0.00000000	          0.00000000	        173.95065270	        824.56969862	         52.31829234	          0.01243131	          0.00000000	         -0.06885095	          0.00000000	          0.00000000	          0.00000000	          0.00000000	         -3.46757123	          0.00000000	
          1.05200000	          0.00000000	          0.00000000	          0.00000000	          0.00000000	          0.00000000	          0.00000000	        179.33876873	        817.51113527	         51.52986253	          0.01334539	          0.00000000	         -0.06859741	          0.00000000	          0.00000000	          0.00000000	          0.00000000	         -3.46823808	          0.00000000	
          1.05600000	          0.00000000	          0.00000000	          0.00000000	          0.00000000	          0.00000000	          0.00000000	        184.29992514	        808.33474457	         50.70619697	          0.01430458	          0.00000000	         -0.06831236	          0.00000000	          0.00000000	          0.00000000	          0.00000000	         -3.44707666	          0.00000000	
          1.06000000	          0.00000000	          0.00000000	          0.00000000	          0.00000000	          0.00000000	          0.00000000	        188.79572118	        797.20223189	         49.81537753	          0.01530181	          0.00000000	         -0.06798752	          0.00000000	          0.00000000	          0.00000000	          0.00000000	         -3.40900842	          0.00000000	
          1.06400000	          0.00000000	          0.00000000	          0.00000000	          0.00000000	          0.00000000	          0.00000000	        192.79734668	        784.16424856	         48.82066589	          0.01633746	          0.00000000	         -0.06762864	          0.00000000	          0.00000000	          0.00000000	          0.00000000	         -3.35887199	          0.00000000	
          1.06800000	          0.00000000	          0.00000000	          0.00000000	          0.00000000	          0.00000000	          0.00000000	        196.28013158	        769.20144920	         47.69460577	          0.01742984	          0.00000000	         -0.06723441	          0.00000000	          0.00000000	          0.00000000	          0.00000000	         -3.30058546	          0.00000000	
          1.07200000	          0.00000000	          0.00000000	          0.00000000	          0.00000000	          0.00000000	          0.00000000	        199.21528697	        752.29261183	         46.42715381	          0.01859129	          0.00000000	         -0.06680176	          0.00000000	          0.00000000	          0.00000000	          0.00000000	         -3.23652479	          0.00000000	
          1.07600000	          0.00000000	          0.00000000	          0.00000000	          0.00000000	          0.00000000	          0.00000000	        201.56043334	        733.41642596	         45.02575447	          0.01981079	          0.00000000	         -0.06633667	          0.00000000	          0.00000000	          0.00000000	          0.00000000	         -3.16716870	          0.00000000	
          1.08000000	          0.00000000	          0.00000000	          0.00000000	          0.00000000	          0.00000000	          0.00000000	        203.24907930	        712.51611337	         43.49897046	          0.02107323	          0.00000000	         -0.06585171	          0.00000000	          0.00000000	          0.00000000	          0.00000000	         -3.09104516	          0.00000000	
          1.08400000	          0.00000000	          0.00000000	          0.00000000	          0.00000000	          0.00000000	          0.00000000	        204.18007030	        689.48544790	         41.84136322	          0.02237308	          0.00000000	         -0.06535653	          0.00000000	          0.00000000	          0.00000000	          0.00000000	         -3.00496624	          0.00000000	
          1.08800000	          0.00000000	          0.00000000	          0.00000000	          0.00000000	          0.00000000	          0.00000000	        204.22215325	        664.16828306	         40.04198590	          0.02368081	          0.00000000	         -0.06486725	          0.00000000	          0.00000000	          0.00000000	          0.00000000	         -2.90448072	          0.00000000	
          1.09200000	          0.00000000	          0.00000000	          0.00000000	          0.00000000	          0.00000000	          0.00000000	        203.23961420	        636.37696174	         38.09947045	          0.02495918	          0.00000000	         -0.06441160	          0.00000000	          0.00000000	          0.00000000	          0.00000000	         -2.78452293	          0.00000000	
          1.09600000	         -0.47005308	         17.24577964	          1.60338539	          0.62682151	          0.00000000	          0.07406878	        201.10166127	        605.94491657	         36.01734131	          0.02620171	          0.00000000	         -0.06400317	          0.00000000	          0.18121140	          0.00000000	          0.00000000	         -2.64033240	          0.00000000	
          1.10000000	         -9.71804825	        133.40505656	          4.80383437	          0.63240306	          0.00000000	          0.07274564	        197.65575333	        572.76221747	         33.77832385	          0.02742347	          0.00000000	         -0.06363317	          0.00000000	          0.06488601	          0.00000000	          0.00000000	         -2.46865143	          0.00000000	
          1.10400000	        -19.42963068	        238.71021056	          7.99930228	          0.63750013	          0.00000000	          0.07167177	        192.69710627	        536.76201396	         31.32369643	          0.02866233	          0.00000000	         -0.06329002	          0.00000000	         -0.07585957	          0.00000000	          0.00000000	         -2.26894886	          0.00000000	
          1.10800000	        -30.43069620	        324.60891651	         10.87885369	          0.64204300	          0.00000000	          0.07117629	        185.97106771	        497.91480889	         28.57982177	          0.02992133	          0.00000000	         -0.06299298	          0.00000000	         -0.25121276	          0.00000000	          0.00000000	         -2.04422371	          0.00000000	
          1.11200000	        -43.52758683	        388.77520955	         12.77015834	          0.64549613	          0.00000000	          0.07166412	        177.22915458	        456.30911882	         25.52015989	          0.03120298	          0.00000000	         -0.06277376	          0.00000000	         -0.46041192	          0.00000000	          0.00000000	         -1.80107394	          0.00000000	
          1.11600000	        -58.88230043	        435.98007717	         12.93947692	          0.64844987	          0.00000000	          0.07301524	        166.30548990	        412.31867711	         22.19083709	          0.03259448	          0.00000000	         -0.06262940	          0.00000000	         -0.68892419	          0.00000000	          0.00000000	         -1.54905124	          0.00000000	
          1.12000000	        -76.16302389	        474.73933167	         10.98907756	          0.65241693	          0.00000000	          0.07469751	        153.15529831	        366.73027431	         18.68426301	          0.03418716	          0.00000000	         -0.06255608	          0.00000000	         -0.90877177	          0.00000000	          0.00000000	         -1.29948333	          0.00000000	
          1.12400000	        -94.98867436	        512.38788261	          6.96688262	          0.65822188	          0.00000000	          0.07636444	        137.88499207	        320.69976305	         15.11445674	          0.03604298	          0.00000000	         -0.06253709	          0.00000000	         -1.08228747	          0.00000000	          0.00000000	         -1.06384611	          0.00000000	
